<?xml version="1.0" standalone="no"?>
<!DOCTYPE svg PUBLIC "-//W3C//DTD SVG 20010904//EN"
 "http://www.w3.org/TR/2001/REC-SVG-20010904/DTD/svg10.dtd">
<svg version="1.0" xmlns="http://www.w3.org/2000/svg"
 width="915.000000pt" height="915.000000pt" viewBox="0 0 915.000000 915.000000"
 preserveAspectRatio="xMidYMid meet">

<g transform="translate(0.000000,915.000000) scale(0.100000,-0.100000)"
fill="#000000" stroke="none">
<path d="M5903 6871 c-755 -285 -1376 -520 -1379 -524 -7 -7 648 -676 1290
-1317 306 -305 418 -412 427 -403 6 6 237 604 513 1329 610 1599 548 1434 533
1433 -6 -1 -630 -234 -1384 -518z"/>
<path d="M1724 7324 c-75 -170 -305 -720 -1035 -2483 l-89 -213 566 -1362
c311 -748 571 -1371 577 -1384 10 -19 268 -130 1400 -598 l1389 -575 1384 573
c761 315 1384 576 1384 581 0 4 -6 9 -12 11 -7 3 -627 235 -1378 517 -751 282
-1372 512 -1380 511 -8 0 -633 -233 -1389 -517 -755 -284 -1376 -514 -1379
-511 -3 3 129 358 293 788 163 431 399 1050 523 1375 l225 593 -523 1372
c-288 755 -525 1375 -526 1377 -2 2 -16 -22 -30 -55z"/>
</g>
</svg>
